<svg xmlns="http://www.w3.org/2000/svg" xmlns:xlink="http://www.w3.org/1999/xlink" id="Layer_1" data-name="Layer 1" viewBox="0 0 1080 1080" width="1080" height="1080"><metadata><rdf:RDF xmlns:rdf="http://www.w3.org/1999/02/22-rdf-syntax-ns#" xmlns:dc="http://purl.org/dc/elements/1.1/"><rdf:Description><dc:creator>RealFaviconGenerator</dc:creator><dc:source>https://realfavicongenerator.net</dc:source></rdf:Description></rdf:RDF></metadata><defs>
    <style>
      .cls-1 {
        fill: #10171e;
        fill-rule: evenodd;
      }

      .cls-2 {
        fill: url(#linear-gradient);
      }
    </style>
    <linearGradient id="linear-gradient" x1="233.4" y1="260.6" x2="1030.59" y2="988.7" gradientUnits="userSpaceOnUse">
      <stop offset="0" stop-color="#5bbaff"></stop>
      <stop offset="1" stop-color="#aa8ffe"></stop>
    </linearGradient>
  </defs><rect class="cls-2" x="3.41" y="4.96" width="1073.49" height="1071.62" rx="294.66" ry="294.66"></rect><g id="Layer_16" data-name="Layer 16">
    <path class="cls-1" d="M479.29,487.23c15.07,0,27.3,12.21,27.3,27.3s-12.23,27.3-27.3,27.3-27.3-12.21-27.3-27.3,12.21-27.3,27.3-27.3M599.89,487.23c15.09,0,27.31,12.21,27.31,27.3s-12.23,27.3-27.31,27.3-27.3-12.21-27.3-27.3c.02-15.07,12.24-27.3,27.3-27.3ZM703.14,209.45c-88.67-74.56-238.41-74.56-327.08,0-72.52,60.96-99.01,162.21-76.21,252.74,10.96,43.49,33.25,84.21,66.93,116.2-46.15,30.79-53.18,80.17-59.97,128.02-7.19,50.77-14.1,103.23-98.63,104.44-28.58.4-31.41,42.88-3,46.91,117.62,16.75,140.03-45.13,163.45-105.77,10.51-27.25,21.33-55.24,47.09-71.99-2.64,23.09,1.58,48.7,5.89,75.12,7.6,46.4,15.72,99.95-27.65,127.96-24.31,15.67-3.54,52.63,22.3,40.96,75.07-33.93,92.01-109.32,107.56-175.04,4.81-20.32,9.44-40,15.73-56.77,6.26,16.77,10.91,36.45,15.73,56.76,15.56,65.75,32.55,141.13,107.65,175.07,26.26,11.87,46.45-25.35,22.3-40.96-43.37-28.01-35.26-81.56-27.65-127.96,4.33-26.41,8.52-52.03,5.89-75.12,25.77,16.75,36.58,44.75,47.09,71.99,23.4,60.63,45.83,122.52,163.45,105.77,28.39-4.02,25.58-46.51-3.01-46.91-84.53-1.22-91.44-53.66-98.63-104.44-6.79-47.87-13.8-97.25-59.95-128.02,33.69-31.99,55.97-72.71,66.93-116.2,22.8-90.56-3.69-191.8-76.21-252.75Z"></path>
  </g></svg>